<svg xmlns="http://www.w3.org/2000/svg" data-name="Layer 1" viewBox="0 0 64 64"><path d="M12 12.514V14.8l8-6.4L12 2v3.2c-5.523 0-10 4.093-10 9.143A8.443 8.443 0 0 0 2.838 18 10.064 10.064 0 0 1 12 12.514zm40 38.972V49.2l-8 6.4 8 6.4v-3.2c5.523 0 10-4.093 10-9.143A8.44 8.44 0 0 0 61.162 46 10.064 10.064 0 0 1 52 51.486zM49.657 2A8.44 8.44 0 0 0 46 2.838 10.064 10.064 0 0 1 51.486 12H49.2l6.4 8 6.4-8h-3.2c0-5.523-4.093-10-9.143-10zM14.343 62A8.44 8.44 0 0 0 18 61.162 10.064 10.064 0 0 1 12.514 52H14.8l-6.4-8L2 52h3.2c0 5.523 4.093 10 9.143 10zM35 36a3 3 0 0 0-2-2.816v5.632A3 3 0 0 0 35 36zm-4-10.816a2.982 2.982 0 0 0 0 5.632z"/><path d="M32 47a15 15 0 1 0-15-15 15 15 0 0 0 15 15Zm-5-19a5.009 5.009 0 0 1 4-4.9V21h2v2.1a5.009 5.009 0 0 1 4 4.9h-2a3 3 0 0 0-2-2.816V31.1a5 5 0 0 1 0 9.8V43h-2v-2.1a5.009 5.009 0 0 1-4-4.9h2a3 3 0 0 0 2 2.816V32.9a5.009 5.009 0 0 1-4-4.9Z"/></svg>